HIERARCHY
ROOT Hips
{
    OFFSET 0.000000 0.000000 0.000000
    CHANNELS 6 Xposition Yposition Zposition Zrotation Xrotation Yrotation
    JOINT Spine
    {
        OFFSET -0.000000 14.517291 0.000000
        CHANNELS 3 Zrotation Xrotation Yrotation
        JOINT Spine1
        {
            OFFSET -0.000000 37.558300 0.000000
            CHANNELS 3 Zrotation Xrotation Yrotation
            JOINT Neck
            {
                OFFSET -0.000000 37.404057 3.400369
                CHANNELS 3 Zrotation Xrotation Yrotation
                JOINT Head
                {
                    OFFSET -0.000000 24.785618 -3.540803
                    CHANNELS 3 Zrotation Xrotation Yrotation
                    End Site
                    {
                        OFFSET -0.000000 35.408028 0.000000
                    }
                }
            }
            JOINT LeftShoulder
            {
                OFFSET 6.992933 33.973492 -0.192664
                CHANNELS 3 Zrotation Xrotation Yrotation
                JOINT LeftArm
                {
                    OFFSET 21.527611 0.000000 0.000000
                    CHANNELS 3 Zrotation Xrotation Yrotation
                    JOINT LeftForeArm
                    {
                        OFFSET 56.353916 0.000000 0.000000
                        CHANNELS 3 Zrotation Xrotation Yrotation
                        JOINT LeftHand
                        {
                            OFFSET 47.774071 0.000000 0.000000
                            CHANNELS 3 Zrotation Xrotation Yrotation
                            End Site
                            {
                                OFFSET 26.556021 0.000000 0.000000
                            }
                        }
                    }
                }
            }
            JOINT RightShoulder
            {
                OFFSET -7.065357 33.973492 -0.192664
                CHANNELS 3 Zrotation Xrotation Yrotation
                JOINT RightArm
                {
                    OFFSET -21.527611 0.000000 0.000000
                    CHANNELS 3 Zrotation Xrotation Yrotation
                    JOINT RightForeArm
                    {
                        OFFSET -56.353916 0.000000 0.000000
                        CHANNELS 3 Zrotation Xrotation Yrotation
                        JOINT RightHand
                        {
                            OFFSET -47.774071 0.000000 0.000000
                            CHANNELS 3 Zrotation Xrotation Yrotation
                            End Site
                            {
                                OFFSET -26.556021 0.000000 0.000000
                            }
                        }
                    }
                }
            }
        }
    }
    JOINT LeftUpLeg
    {
        OFFSET 17.704014 0.000000 0.000000
        CHANNELS 3 Zrotation Xrotation Yrotation
        JOINT LeftLeg
        {
            OFFSET -0.000000 -81.181816 0.000000
            CHANNELS 3 Zrotation Xrotation Yrotation
            JOINT LeftFoot
            {
                OFFSET -0.000000 -62.821102 0.000000
                CHANNELS 3 Zrotation Xrotation Yrotation
                JOINT LeftToeBase
                {
                    OFFSET -0.000000 -11.507608 26.556021
                    CHANNELS 3 Zrotation Xrotation Yrotation
                    End Site
                    {
                        OFFSET -0.000000 0.000000 7.081605
                    }
                }
            }
        }
    }
    JOINT RightUpLeg
    {
        OFFSET -17.704014 0.000000 0.000000
        CHANNELS 3 Zrotation Xrotation Yrotation
        JOINT RightLeg
        {
            OFFSET -0.000000 -81.181816 0.000000
            CHANNELS 3 Zrotation Xrotation Yrotation
            JOINT RightFoot
            {
                OFFSET -0.000000 -62.821102 0.000000
                CHANNELS 3 Zrotation Xrotation Yrotation
                JOINT RightToeBase
                {
                    OFFSET -0.000000 -11.507608 26.556021
                    CHANNELS 3 Zrotation Xrotation Yrotation
                    End Site
                    {
                        OFFSET -0.000000 0.000000 7.081605
                    }
                }
            }
        }
    }
}
MOTION
Frames:    10
Frame Time:    0.008333
-10.395062    151.654404    -12.509264    -0.030177    0.848202    23.249304    -1.426579    -0.383884    8.593968    -4.271582    1.351069    2.917150    -6.353336    -2.970197    -15.550355    18.964899    2.984508    -12.914755    1.241584    2.332695    -7.647502    -42.367344    8.974959    -62.461342    46.688129    -53.727306    -41.887249    -2.975130    -40.761330    -5.150570    -13.051996    1.996631    6.213507    21.545713    -19.199190    53.453453    -7.973643    -21.708324    12.549837    12.101008    -16.637217    40.579514    1.350086    -34.291653    -27.922976    -10.423352    21.895958    -22.109463    -10.763881    3.566485    29.473137    0.000000    0.000000    0.000000    4.096856    11.723238    -14.307445    3.099428    23.445406    -0.911314    -3.336268    -30.879143    -6.741355    0.000000    0.000000    0.000000    
-10.376855    151.662094    -12.552285    -0.044675    0.855613    23.255007    -1.427176    -0.365129    8.583659    -4.261545    1.329970    2.912762    -6.336747    -3.010504    -15.544080    18.931561    3.022742    -12.919008    1.296595    2.331967    -7.691600    -42.302517    9.292651    -62.539642    45.770260    -53.756577    -43.078079    -2.864737    -40.679188    -4.950540    -13.050088    2.005083    6.204499    21.562941    -19.216597    53.484962    -7.962853    -21.707808    12.550555    12.120287    -16.629524    40.590942    1.354485    -34.287830    -27.894848    -10.393860    21.842535    -22.099159    -10.791381    3.602663    29.432730    0.000000    0.000000    0.000000    4.100779    11.696262    -14.307044    3.095507    23.444889    -0.942383    -3.308555    -30.876305    -6.727069    0.000000    0.000000    0.000000    
-10.363891    151.670700    -12.593513    -0.065750    0.870932    23.262112    -1.432209    -0.366466    8.566158    -4.246192    1.324129    2.906532    -6.309822    -3.031845    -15.529320    18.903065    3.020391    -12.909943    1.352210    2.324957    -7.724181    -42.245888    9.602659    -62.608730    44.662212    -53.816475    -44.460903    -2.706707    -40.651337    -4.699977    -13.039755    1.999658    6.205742    21.586124    -19.251387    53.513412    -7.936419    -21.680607    12.557823    12.142681    -16.594339    40.603230    1.372991    -34.295811    -27.885439    -10.394629    21.778643    -22.070265    -10.795862    3.656646    29.393393    0.000000    0.000000    0.000000    4.103731    11.659615    -14.273689    3.110173    23.447470    -0.945899    -3.309332    -30.864258    -6.753992    0.000000    0.000000    0.000000    
-10.345622    151.673355    -12.630503    -0.081882    0.870635    23.279190    -1.426655    -0.344789    8.547969    -4.252464    1.308025    2.899867    -6.289439    -3.056043    -15.526239    18.904217    3.043266    -12.912614    1.419765    2.329299    -7.768499    -42.226223    9.992347    -62.649975    43.660084    -53.841473    -45.827629    -2.767660    -40.552582    -4.699554    -13.007106    1.986578    6.198140    21.571320    -19.241007    53.524673    -7.941692    -21.687569    12.567329    12.123330    -16.607513    40.600990    1.380151    -34.291298    -27.874561    -10.388568    21.729557    -22.059414    -10.804246    3.687453    29.378054    0.000000    0.000000    0.000000    4.113601    11.644038    -14.278506    3.107275    23.445459    -0.907651    -3.324874    -30.858501    -6.812513    0.000000    0.000000    0.000000    
-10.324211    151.677216    -12.668209    -0.094830    0.872133    23.297682    -1.428474    -0.335247    8.530067    -4.247776    1.308295    2.893819    -6.278157    -3.075327    -15.524190    18.914425    3.051745    -12.911626    1.482760    2.337695    -7.810465    -42.221432    10.375711    -62.739143    42.693378    -53.860092    -47.160805    -2.882499    -40.461071    -4.634931    -12.992422    1.991028    6.171705    21.589985    -19.264109    53.572620    -7.931419    -21.676634    12.572435    12.104399    -16.601177    40.623688    1.376991    -34.289951    -27.873602    -10.373462    21.687662    -22.081644    -10.821559    3.720755    29.364038    0.000000    0.000000    0.000000    4.112335    11.633528    -14.256511    3.131560    23.437693    -0.939067    -3.326514    -30.850945    -6.819168    0.000000    0.000000    0.000000    
-10.307252    151.680588    -12.693809    -0.108675    0.858512    23.315239    -1.433229    -0.309270    8.511320    -4.235843    1.297133    2.886938    -6.262882    -3.080721    -15.527855    18.919260    3.053210    -12.917591    1.537018    2.381834    -7.854563    -42.195545    10.741634    -62.863720    41.829636    -53.838608    -48.397320    -3.157354    -40.319820    -4.702135    -12.981231    1.998518    6.153853    21.618355    -19.293585    53.611805    -7.906346    -21.668192    12.604462    12.092556    -16.597689    40.619659    1.379915    -34.273483    -27.847013    -10.347455    21.656303    -22.109306    -10.820382    3.749716    29.351601    0.000000    0.000000    0.000000    4.124132    11.647617    -14.249396    3.149525    23.407000    -0.955497    -3.338431    -30.837166    -6.839463    0.000000    0.000000    0.000000    
-10.285740    151.683136    -12.722670    -0.119217    0.850192    23.342270    -1.440829    -0.291997    8.477665    -4.219410    1.297917    2.875516    -6.254724    -3.108452    -15.522790    18.920412    3.071043    -12.914960    1.571682    2.416131    -7.889374    -42.137505    11.076874    -63.032249    41.082710    -53.772240    -49.446690    -3.641040    -40.139278    -5.036116    -12.977591    1.994269    6.145225    21.622393    -19.296114    53.647602    -7.913819    -21.672798    12.612919    12.112377    -16.592367    40.633537    1.367264    -34.262505    -27.831690    -10.318784    21.630234    -22.131725    -10.829594    3.773344    29.319679    0.000000    0.000000    0.000000    4.130881    11.661549    -14.264106    3.156127    23.374239    -0.962437    -3.345106    -30.829842    -6.832412    0.000000    0.000000    0.000000    
-10.263087    151.686508    -12.745692    -0.130627    0.840494    23.368572    -1.447049    -0.276788    8.449575    -4.207267    1.293021    2.865764    -6.240320    -3.125435    -15.519642    18.920380    3.092784    -12.916891    1.607667    2.457791    -7.944695    -42.125912    11.425335    -63.197266    40.199291    -53.927860    -50.659595    -4.041036    -40.261368    -5.200596    -12.963679    1.978267    6.132588    21.621563    -19.285959    53.674500    -7.905534    -21.667854    12.631259    12.122576    -16.578468    40.674717    1.361109    -34.249992    -27.829405    -10.304668    21.597874    -22.144472    -10.842667    3.797573    29.308323    0.000000    0.000000    0.000000    4.138494    11.683307    -14.257549    3.178143    23.329046    -1.012756    -3.322120    -30.820885    -6.800448    0.000000    0.000000    0.000000    
-10.238998    151.690323    -12.767752    -0.140888    0.830655    23.400396    -1.456499    -0.263766    8.408972    -4.190857    1.285243    2.851717    -6.222250    -3.148283    -15.508130    18.905897    3.130144    -12.914574    1.639469    2.521720    -7.996500    -42.097794    11.703474    -63.391361    39.575623    -53.746883    -51.625576    -4.339160    -39.936726    -5.416584    -12.958298    1.987776    6.132824    21.647625    -19.315241    53.722763    -7.868514    -21.681421    12.636852    12.067595    -16.611626    40.711147    1.347807    -34.234917    -27.814163    -10.279553    21.568377    -22.166595    -10.852656    3.819540    29.285727    0.000000    0.000000    0.000000    4.145741    11.707121    -14.276591    3.193168    23.283276    -0.987227    -3.328801    -30.808622    -6.834374    0.000000    0.000000    0.000000    
-10.216130    151.695648    -12.787771    -0.158447    0.826864    23.424913    -1.454859    -0.264298    8.382626    -4.193614    1.282682    2.842874    -6.181719    -3.159600    -15.503469    18.883240    3.153624    -12.922771    1.683540    2.575244    -8.068434    -42.076569    11.961616    -63.570141    38.805534    -53.548393    -52.726410    -4.423329    -39.622639    -5.593750    -12.930258    1.974842    6.135031    21.665291    -19.339869    53.740627    -7.852407    -21.614672    12.673367    12.065386    -16.549360    40.655048    1.347627    -34.225601    -27.797003    -10.257595    21.532944    -22.182619    -10.855633    3.846888    29.248590    0.000000    0.000000    0.000000    4.158384    11.724200    -14.261021    3.216811    23.227823    -1.020980    -3.336831    -30.786337    -6.835506    0.000000    0.000000    0.000000    
